<?xml version="1.0" standalone="no"?>
<!DOCTYPE svg PUBLIC "-//W3C//DTD SVG 1.1//EN" "http://www.w3.org/Graphics/SVG/1.1/DTD/svg11.dtd" >
<svg xmlns="http://www.w3.org/2000/svg" xmlns:xlink="http://www.w3.org/1999/xlink" version="1.1">
<metadata></metadata>
<defs>
<font id="sofia_proultralight_italic" horiz-adv-x="1284" >
<font-face units-per-em="2048" ascent="1536" descent="-512" />
<missing-glyph horiz-adv-x="561" />
<glyph unicode="&#xfb01;" horiz-adv-x="1124" d="M219 901l10 55h197l29 162q15 88 44 158.5t75.5 126.5t115.5 86.5t156 30.5h69l-12 -62h-69q-137 0 -214 -92.5t-104 -247.5l-29 -162h631l-168 -956h-61l158 901h-570l-158 -901h-61l158 901h-197zM1085 1309q4 26 25.5 42.5t48.5 16.5q29 0 44.5 -16.5t10.5 -42.5 q-5 -25 -25.5 -41.5t-49.5 -16.5q-27 0 -42.5 17t-11.5 41z" />
<glyph unicode="&#xfb02;" horiz-adv-x="1095" d="M219 901l10 55h197l29 162q15 88 44 158.5t75.5 126.5t115.5 86.5t156 30.5h340l-268 -1520h-62l256 1458h-278q-137 0 -214 -92.5t-104 -247.5l-29 -162h271l-10 -55h-271l-158 -901h-61l158 901h-197z" />
<glyph unicode="&#xfb03;" horiz-adv-x="1800" d="M219 901l10 55h197l29 162q15 88 44 158.5t75.5 126.5t115.5 86.5t156 30.5h69l-12 -62h-69q-137 0 -214 -92.5t-104 -247.5l-29 -162h615l28 162q15 88 44.5 158.5t75.5 126.5t115.5 86.5t156.5 30.5h69l-12 -62h-70q-257 0 -317 -340l-29 -162h631l-168 -956h-61 l157 901h-569l-158 -901h-61l158 901h-615l-158 -901h-61l158 901h-197zM1761 1309q4 26 25.5 42.5t48.5 16.5q29 0 44.5 -16.5t10.5 -42.5q-5 -25 -25.5 -41.5t-49.5 -16.5q-27 0 -42.5 17t-11.5 41z" />
<glyph unicode="&#xfb04;" horiz-adv-x="1771" d="M219 901l10 55h197l29 162q15 88 44 158.5t75.5 126.5t115.5 86.5t156 30.5h69l-12 -62h-69q-137 0 -214 -92.5t-104 -247.5l-29 -162h615l28 162q15 88 44.5 158.5t75.5 126.5t115.5 86.5t156.5 30.5h340l-269 -1520h-61l256 1458h-279q-257 0 -317 -340l-29 -162h271 l-11 -55h-270l-158 -901h-61l158 901h-615l-158 -901h-61l158 901h-197z" />
<glyph horiz-adv-x="0" />
<glyph horiz-adv-x="682" />
<glyph unicode=" "  horiz-adv-x="561" />
<glyph unicode="&#x09;" horiz-adv-x="561" />
<glyph unicode="&#xa0;" horiz-adv-x="561" />
<glyph unicode="!" horiz-adv-x="479" d="M182 49q4 26 26.5 43t49.5 17q29 0 43.5 -16.5t9.5 -43.5q-5 -25 -24.5 -41t-48.5 -16q-27 0 -43.5 16.5t-12.5 40.5zM262 317l195 1094h61l-194 -1094h-62z" />
<glyph unicode="&#x22;" horiz-adv-x="585" d="M328 905l90 506h61l-90 -506h-61zM512 905l90 506h62l-91 -506h-61z" />
<glyph unicode="#" horiz-adv-x="1488" d="M152 373l28 61h295l242 535h-295l27 61h296l173 381h61l-174 -381h424l172 381h61l-174 -381h295l-27 -61h-294l-242 -535h295l-29 -61h-295l-166 -373h-61l166 373h-422l-166 -373h-61l165 373h-294zM537 434h421l242 535h-422z" />
<glyph unicode="$" horiz-adv-x="1116" d="M168 340h61q0 -123 87 -211t239 -88q173 0 295.5 83.5t163.5 194.5q23 63 18.5 115.5t-25 92t-60 70.5t-85.5 51.5t-102 33.5l-195 47q-65 14 -114 37t-78 51.5t-47 59t-23.5 64.5t-4.5 63t7 59q19 103 94 186.5t177.5 129t209.5 48.5l37 205h62l-39 -207 q154 -14 240.5 -105t74.5 -237h-61q10 129 -77 206t-235 77q-94 0 -184.5 -38t-155.5 -108.5t-81 -156.5q-38 -212 223 -275l190 -47q67 -15 120.5 -39t98.5 -60.5t67.5 -84.5t26.5 -110.5t-24 -139.5q-28 -76 -89.5 -145t-163.5 -120.5t-222 -59.5l-43 -234h-62l41 232 q-115 3 -201 56t-126 133t-35 171z" />
<glyph unicode="%" horiz-adv-x="1335" d="M287 1130q17 103 102.5 175.5t188.5 72.5q105 0 162 -72t40 -176q-20 -104 -104.5 -174.5t-188.5 -70.5q-105 0 -162.5 70.5t-37.5 174.5zM289 0l905 1360h66l-902 -1360h-69zM348 1130q-14 -78 29 -131t121 -53t143.5 53.5t77.5 130.5q13 78 -32.5 132.5t-123.5 54.5 t-140.5 -54.5t-74.5 -132.5zM799 227q17 103 100.5 175.5t187.5 72.5t163 -72.5t42 -175.5q-15 -103 -100 -174t-188 -71q-104 0 -162 70t-43 175zM860 227q-17 -77 28 -130.5t124 -53.5q77 0 139.5 52.5t79.5 131.5q17 76 -30 131.5t-124 55.5t-138 -54.5t-79 -132.5z" />
<glyph unicode="&#x26;" horiz-adv-x="1347" d="M195 414q21 126 120.5 244.5t237.5 160.5q-69 46 -99 125.5t-16 161.5q25 134 140.5 227.5t257.5 93.5q187 0 260 -131l-54 -36q-64 106 -217 106q-117 0 -210.5 -76.5t-114.5 -183.5q-20 -113 42.5 -187.5t180.5 -74.5h379l35 186h61l-35 -188h197l-8 -56h-199l-66 -372 q-9 -55 -13 -95.5t-3 -84.5t12 -75t31.5 -57.5t56.5 -41.5t86 -19l-10 -61q-105 0 -172 63t-63 186q-43 -85 -123.5 -144t-163 -83.5t-162.5 -24.5q-194 0 -298 126.5t-70 310.5zM256 414q-30 -157 60.5 -266t258.5 -109q166 0 291 101.5t158 256.5l70 389h-383 q-164 0 -297 -109.5t-158 -262.5z" />
<glyph unicode="'" horiz-adv-x="401" d="M328 905l90 506h61l-90 -506h-61z" />
<glyph unicode="(" horiz-adv-x="686" d="M203 473q77 432 252.5 681.5t402.5 270.5l-10 -61q-199 -18 -355.5 -251.5t-228.5 -639.5q-71 -408 1.5 -641t266.5 -250l-10 -61q-222 17 -309 268t-10 684z" />
<glyph unicode=")" horiz-adv-x="686" d="M-4 -479l8 61q196 18 353 252t229 639q72 408 -1 640.5t-268 250.5l11 61q223 -21 309.5 -269.5t9.5 -682.5q-77 -432 -252.5 -683t-398.5 -269z" />
<glyph unicode="*" horiz-adv-x="933" d="M336 1159l33 66l272 -115l39 317h74l-78 -317l321 115l9 -64l-320 -82l152 -252l-15 -10l-41 -24l-120 260l-234 -267l-49 41l246 246z" />
<glyph unicode="+" horiz-adv-x="1060" d="M215 500l12 61h371l66 369h61l-66 -369h371l-12 -61h-371l-65 -373h-62l66 373h-371z" />
<glyph unicode="," horiz-adv-x="454" d="M33 -270q152 174 186 391h62q-21 -128 -72.5 -223.5t-130.5 -186.5z" />
<glyph unicode="-" horiz-adv-x="972" d="M231 430l11 62h657l-10 -62h-658z" />
<glyph unicode="." horiz-adv-x="444" d="M162 37q4 26 25.5 42.5t48.5 16.5q29 0 44.5 -16.5t10.5 -42.5q-5 -25 -26 -41t-50 -16q-27 0 -42 16.5t-11 40.5z" />
<glyph unicode="/" horiz-adv-x="911" d="M80 0l932 1411h67l-932 -1411h-67z" />
<glyph unicode="0" horiz-adv-x="1245" d="M245 325.5q-6 81.5 0 166t23 186.5q21 122 51.5 222.5t80 191.5t113.5 152.5t154.5 97.5t200.5 36q93 0 161.5 -24t110.5 -71.5t66 -108t29 -142.5t-1.5 -166.5t-23.5 -187.5q-21 -122 -51 -221t-78.5 -190t-111 -152.5t-152 -98t-199.5 -36.5q-93 0 -162 24.5t-112 71 t-68 107.5t-31 142.5zM309.5 357.5q4.5 -74.5 25.5 -130t57 -98.5t96 -65.5t141 -22.5q95 0 173.5 33t134 89.5t99 139.5t70 174t45.5 201q21 111 26 202.5t-8.5 174.5t-49.5 139.5t-103 89.5t-162 33q-96 0 -174.5 -33.5t-133 -89t-97 -139.5t-69.5 -174t-48 -203 q-16 -93 -21.5 -169.5t-1 -151z" />
<glyph unicode="1" horiz-adv-x="610" d="M293 1171l10 66l326 113l-238 -1350h-61l221 1262z" />
<glyph unicode="2" horiz-adv-x="1034" d="M123 0l2 23l696 679q161 151 187 304q25 138 -51.5 224.5t-217.5 86.5q-120 0 -219.5 -60t-146.5 -163l-56 16q53 123 174 195.5t261 72.5q167 0 256.5 -104.5t60.5 -267.5q-33 -174 -207 -342l-618 -603h667l-8 -61h-780z" />
<glyph unicode="3" horiz-adv-x="1118" d="M154 233q-2 0 28 13l29 12q25 -90 99.5 -147.5t187.5 -67.5q168 -8 304.5 81t182.5 238q28 159 -47.5 247.5t-208.5 88.5h-137l10 62h137q90 0 182 66.5t123 170.5q34 123 -33.5 216.5t-217.5 105.5q-93 7 -196.5 -41.5t-158.5 -122.5l-47 31q73 95 185 147t233 45 q184 -12 261.5 -122t35.5 -263q-23 -82 -88.5 -153.5t-151.5 -106.5q55 -14 97.5 -53.5t63.5 -91.5t27 -113t-10 -119q-46 -169 -205.5 -277.5t-344.5 -96.5q-130 10 -222 78t-118 173z" />
<glyph unicode="4" horiz-adv-x="1140" d="M111 297l923 1063h43l-180 -1002h217l-10 -61h-217l-49 -297h-62l49 297h-714zM233 358h603l157 881z" />
<glyph unicode="5" horiz-adv-x="1118" d="M150 238l59 30q37 -94 133.5 -158.5t204.5 -64.5q188 0 314 104t155 263q14 82 -6.5 149.5t-66 110t-105.5 65.5t-127 23q-103 0 -187 -22t-219 -79l-18 33l237 668h629l-12 -62h-578l-201 -561q112 44 192 64t169 20q78 0 148 -27t123 -76.5t77 -129t6 -176.5 q-33 -186 -178.5 -307t-361.5 -121q-123 0 -232.5 73.5t-154.5 180.5z" />
<glyph unicode="6" horiz-adv-x="1128" d="M238 416q7 66 14 121t20.5 133.5t30.5 143t44 139.5t59.5 133.5t79 115t100 94t124.5 60t152 22.5q250 0 312 -235l-60 -25q-53 199 -268 199q-421 0 -520 -692l-9 -54q63 128 183 193.5t250 60.5q176 -7 265 -132t52 -310q-42 -178 -182.5 -292.5t-317.5 -110.5 q-168 4 -258.5 124.5t-70.5 311.5zM299 418q-29 -160 51.5 -266t229.5 -111q150 -5 273 94.5t155 251.5q30 157 -45 265t-224 112q-153 5 -282 -94t-158 -252z" />
<glyph unicode="7" horiz-adv-x="1009" d="M145 0l945 1298h-744l12 62h846l-989 -1360h-70z" />
<glyph unicode="8" horiz-adv-x="1142" d="M195 399q25 136 122.5 241t239.5 151q-76 37 -111 111t-18 165q25 130 136.5 220.5t250.5 90.5q142 0 222 -90.5t55 -220.5q-17 -92 -79 -166.5t-153 -112.5q124 -45 187.5 -150.5t39.5 -238.5q-32 -178 -181.5 -298.5t-340.5 -120.5q-189 0 -295.5 121t-74.5 298z M256 399q-25 -153 64.5 -255.5t254.5 -102.5q164 0 295 103.5t156 254.5q25 144 -65.5 251.5t-247.5 107.5l-27 -2q-157 -7 -281 -110.5t-149 -246.5zM492 1067q-20 -104 40 -179t168 -75l23 2q113 4 201 76.5t108 175.5q17 105 -49 177.5t-182 72.5q-113 0 -202.5 -72.5 t-106.5 -177.5z" />
<glyph unicode="9" horiz-adv-x="1128" d="M195 215l57 25q56 -199 266 -199q77 0 143.5 24t114 62.5t88 97t66.5 115.5t48.5 132t35 132t24.5 129l9 45q-59 -121 -182 -186t-251 -60q-177 7 -264.5 132t-50.5 311q41 178 183.5 292.5t318.5 110.5q167 -4 257 -124.5t70 -311.5q-7 -66 -13.5 -121t-20.5 -134 t-30.5 -143t-43.5 -139.5t-59.5 -133.5t-78.5 -114.5t-99.5 -94t-124.5 -60t-152 -22.5q-254 0 -311 235zM358 971q-32 -156 45 -264.5t224 -112.5q151 -8 279.5 93t160.5 253q29 160 -51.5 266t-229.5 111q-150 5 -273 -94.5t-155 -251.5z" />
<glyph unicode=":" horiz-adv-x="444" d="M162 37q4 26 25.5 42.5t48.5 16.5q29 0 44.5 -16.5t10.5 -42.5q-5 -25 -26 -41t-50 -16q-27 0 -42 16.5t-11 40.5zM319 918q4 26 25.5 42.5t48.5 16.5q29 0 44.5 -16.5t11.5 -42.5q-5 -25 -26 -41.5t-50 -16.5q-27 0 -42.5 17t-11.5 41z" />
<glyph unicode=";" horiz-adv-x="530" d="M88 -270q152 174 186 391h62q-21 -128 -72.5 -223.5t-130.5 -186.5zM381 918q4 26 25.5 42.5t48.5 16.5q29 0 44.5 -16.5t10.5 -42.5q-5 -25 -26 -41.5t-50 -16.5q-26 0 -41.5 16.5t-11.5 41.5z" />
<glyph unicode="&#x3c;" horiz-adv-x="1306" d="M190 481l15 74l1114 399l-10 -65l-1037 -373l904 -369l-13 -65z" />
<glyph unicode="=" horiz-adv-x="1245" d="M209 254l10 61h914l-11 -61h-913zM287 690l12 62h913l-12 -62h-913z" />
<glyph unicode="&#x3e;" horiz-adv-x="1306" d="M168 82l10 65l1034 369l-901 373l13 65l970 -399l-14 -74z" />
<glyph unicode="?" horiz-adv-x="968" d="M291 1090q40 152 162.5 243.5t273.5 91.5q163 0 262.5 -105t71.5 -271q-23 -137 -119 -232t-225 -135q-59 -17 -94 -31.5t-71.5 -40.5t-58.5 -66.5t-34 -99.5l-25 -127h-61l24 127q11 59 32.5 104.5t47 74.5t65.5 52.5t76 37t91 28.5q109 32 188.5 113t101.5 195 q24 138 -59.5 226.5t-220.5 88.5q-127 0 -232.5 -77t-136.5 -204zM293 49q4 26 26.5 43t49.5 17q29 0 43.5 -16.5t9.5 -43.5q-5 -25 -25 -41t-49 -16q-27 0 -43 16.5t-12 40.5z" />
<glyph unicode="@" horiz-adv-x="2058" d="M203 506q32 187 133.5 357.5t244 294t324.5 196.5t369 73q151 0 286 -43t238 -121t174 -188t94 -243.5t-2 -286.5q-18 -98 -53.5 -193t-91.5 -184.5t-140.5 -145t-183.5 -55.5q-53 0 -95 13t-75 41.5t-46 81.5t-1 126l49 289q25 141 -56 240.5t-220 99.5t-257.5 -100 t-143.5 -240q-25 -141 56.5 -240.5t221.5 -99.5q50 0 109 17t102 47l-12 -68q-99 -57 -207 -57q-164 0 -262.5 118.5t-69.5 282.5q29 168 168.5 285t304.5 117t262 -117t68 -285l-51 -289q-19 -107 29.5 -153.5t136.5 -46.5q81 0 152 49.5t118.5 129t79 165t47.5 172.5 q30 174 -14.5 328t-145.5 261.5t-252 169.5t-329 62q-174 0 -343.5 -68t-302.5 -183.5t-227.5 -274.5t-124.5 -334t7.5 -332.5t128.5 -272t235 -182t317 -67.5h70l-10 -62h-70q-186 0 -341 72t-253.5 195t-138.5 292.5t-6 356.5z" />
<glyph unicode="A" horiz-adv-x="1265" d="M59 0l789 1411h65l291 -1411h-65l-82 393h-713l-219 -393h-66zM375 449h672l-181 876z" />
<glyph unicode="B" horiz-adv-x="1265" d="M217 0l248 1413h487q166 0 249 -86q62 -64 61 -168q0 -36 -7 -78q-20 -109 -80.5 -198.5t-154.5 -128.5q70 -26 119 -90t67 -140q11 -45 11 -89q0 -29 -5 -58q-26 -155 -151 -266t-295 -111h-549zM287 61h487q143 0 249.5 93.5t127.5 222.5q5 28 5 55q0 46 -13 91 q-20 72 -76.5 127.5t-140.5 68.5q-23 2 -64 2h-459zM414 778h479q25 0 39 2q106 21 174 104.5t90 196.5q6 33 6 63q0 86 -52 138q-70 70 -208 70h-426z" />
<glyph unicode="C" horiz-adv-x="1345" d="M242 702q36 197 156.5 363.5t297 264t367.5 97.5q131 0 241.5 -46.5t186.5 -129.5l-49 -45q-157 160 -389 160q-175 0 -336 -89t-271 -241.5t-143 -333.5q-12 -65 -12 -127q1 -108 37 -205q56 -152 186 -240.5t303 -88.5q237 0 445 158l30 -45q-222 -174 -485 -174 q-191 0 -333.5 96t-204.5 262q-40 106 -40 225q0 68 13 139z" />
<glyph unicode="D" horiz-adv-x="1482" d="M217 0l248 1411h520q193 0 319 -94q125 -93 168 -253q23 -87 23 -187q0 -83 -16 -175q-27 -151 -91.5 -279t-158 -222.5t-220.5 -147.5t-272 -53h-520zM287 61h458q131 0 245.5 49t199.5 135t143.5 203t83.5 254q15 86 15 163q0 91 -20 169q-38 146 -151 231t-286 85 h-459z" />
<glyph unicode="E" horiz-adv-x="1122" d="M217 0l248 1411h766l-10 -61h-705l-110 -627h616l-12 -61h-617l-106 -601h729l-8 -61h-791z" />
<glyph unicode="F" horiz-adv-x="1046" d="M217 0l248 1411h756l-11 -61h-694l-110 -627h550l-12 -61h-551l-114 -662h-62z" />
<glyph unicode="G" horiz-adv-x="1562" d="M242 702q36 197 158 363.5t301.5 264t375.5 97.5q226 0 393 -135l-45 -49q-155 123 -358 123q-136 0 -266 -52.5t-231 -141.5t-173 -211.5t-96 -258.5q-12 -65 -12 -127q0 -109 37 -207q59 -152 192.5 -240.5t312.5 -88.5q250 0 431.5 142t253.5 409h-447l10 61h512 q-69 -334 -270.5 -504t-499.5 -170q-148 0 -269.5 57t-198 154t-107.5 231q-17 72 -17 148q0 66 13 135z" />
<glyph unicode="H" horiz-adv-x="1458" d="M217 0l248 1411h61l-120 -680h901l120 680h62l-248 -1411h-61l116 674h-901l-116 -674h-62z" />
<glyph unicode="I" horiz-adv-x="495" d="M217 0l248 1411h61l-247 -1411h-62z" />
<glyph unicode="J" horiz-adv-x="495" d="M-295 -471l16 61q50 -6 82 -6q174 0 275.5 104t128.5 269l258 1454h61l-258 -1454q-17 -93 -52 -169t-91.5 -136.5t-141 -94.5t-190.5 -34q-45 0 -88 6z" />
<glyph unicode="K" horiz-adv-x="1060" d="M217 0l248 1411h61l-129 -727l736 727h79l-759 -749l600 -662h-86l-578 635l-110 -635h-62z" />
<glyph unicode="L" horiz-adv-x="972" d="M217 0l248 1411h61l-239 -1350h633l-9 -61h-694z" />
<glyph unicode="M" horiz-adv-x="1957" d="M135 0l428 1411h66l383 -1225l815 1225h63l-67 -1411h-62l66 1315l-793 -1182h-67l-373 1186l-399 -1319h-60z" />
<glyph unicode="N" horiz-adv-x="1402" d="M217 0l248 1411h74l598 -1325l235 1325h62l-248 -1411h-74l-602 1319l-231 -1319h-62z" />
<glyph unicode="O" horiz-adv-x="1656" d="M242 702q36 197 158 363.5t301.5 264t375.5 97.5t343 -97q148 -98 212 -264q42 -108 41 -229q0 -66 -12 -135q-27 -148 -106 -281.5t-191 -230t-254 -153.5t-289 -57q-146 0 -267.5 57t-198.5 153t-109 230q-17 72 -16 148q0 66 12 134zM303 702q-11 -64 -11 -124 q0 -110 38 -208q58 -152 191 -240.5t310 -88.5q180 0 345.5 88.5t277.5 240.5t145 332q11 64 11 124q0 112 -38 210q-59 152 -193 241t-312 89q-133 0 -263 -52.5t-232.5 -141.5t-174.5 -212t-94 -258z" />
<glyph unicode="P" horiz-adv-x="1224" d="M217 0l248 1411h545q80 0 141.5 -23t97.5 -62.5t57.5 -92.5t21.5 -113q0 -3 1 -6q0 -57 -10 -119q-14 -82 -48.5 -154t-90 -131t-139.5 -93.5t-187 -34.5h-473l-102 -582h-62zM391 643h473q87 0 158 29t117.5 80t75.5 111.5t42 131.5q8 55 8 106t-18.5 96.5t-48.5 79.5 t-81 53.5t-118 19.5h-483z" />
<glyph unicode="Q" horiz-adv-x="1656" d="M242 702q36 197 158 363.5t301.5 264t375.5 97.5t342.5 -97.5t210.5 -263.5q42 -107 42 -227q0 -66 -13 -137q-36 -206 -168 -376.5t-320 -262.5l123 -268l-55 -33l-129 273q-138 -55 -289 -55q-146 0 -267.5 57t-198.5 153.5t-109 229.5q-16 72 -16 148q0 66 12 134z M303 702q-11 -64 -11 -124q0 -110 38 -208q58 -152 191 -240.5t310 -88.5q126 0 256 47l-124 272l57 33l129 -278q173 86 293 241.5t155 345.5q12 65 12 127q0 109 -37 207q-59 152 -192.5 241t-312.5 89t-343.5 -89t-276 -241.5t-144.5 -333.5z" />
<glyph unicode="R" horiz-adv-x="1230" d="M217 0l248 1411h516q80 0 141.5 -23t97.5 -62.5t58 -92.5t22 -113v-6q0 -57 -10 -119q-14 -82 -48.5 -154t-90 -131t-139.5 -93.5t-187 -34.5h-55l309 -582h-73l-312 582h-313l-102 -582h-62zM391 643h445q87 0 158 29t117.5 80t75.5 111.5t42 131.5q8 55 8 106 t-18.5 96.5t-48.5 79.5t-81 53.5t-118 19.5h-455z" />
<glyph unicode="S" horiz-adv-x="1144" d="M182 340h62q0 -123 86.5 -211t238.5 -88q173 0 295.5 83.5t163.5 194.5q19 53 19 98q-1 9 -1 17q-4 52 -24.5 92t-60 71t-85.5 51.5t-102 33.5l-194 47q-65 14 -114 37t-78 51.5t-47.5 59t-24 64.5t-4.5 63t7 59q18 105 95 189.5t183 129.5t216 45q175 0 275 -93 q90 -83 89 -218q0 -16 -1 -33h-62q1 13 1 26q1 111 -77 180q-86 77 -235 77q-94 0 -184.5 -38t-156 -108.5t-81.5 -156.5q-5 -27 -5 -51q0 -169 228 -224l191 -47q67 -15 120.5 -39t98.5 -60.5t67 -84.5q22 -49 26 -111v-15q0 -56 -24 -124q-23 -62 -67.5 -118.5t-109 -104 t-154.5 -76t-193 -28.5q-120 0 -209.5 52.5t-131.5 133.5q-37 72 -37 154q0 10 1 20z" />
<glyph unicode="T" horiz-adv-x="1128" d="M293 1350l8 61h1018l-8 -61h-480l-237 -1350h-62l238 1350h-477z" />
<glyph unicode="U" horiz-adv-x="1380" d="M285 463l166 948h61l-164 -948q-9 -48 -10 -92q0 -125 76 -213q102 -119 282 -119q118 0 224 52.5t181 150t99 221.5l164 948h61l-163 -948q-26 -143 -113 -255t-208.5 -171.5t-254.5 -59.5q-205 0 -321 135q-89 103 -89 253q0 47 9 98z" />
<glyph unicode="V" horiz-adv-x="1103" d="M332 1411h65l166 -1343l639 1343h66l-670 -1411h-90z" />
<glyph unicode="W" horiz-adv-x="1892" d="M315 1411h64l215 -1327l520 1102h82l125 -1104l686 1329h66l-727 -1411h-76l-129 1104l-518 -1104h-76z" />
<glyph unicode="X" horiz-adv-x="1157" d="M29 0l645 764l-320 647h74l293 -598l502 598h75l-550 -647l380 -764h-75l-351 715l-600 -715h-73z" />
<glyph unicode="Y" horiz-adv-x="1214" d="M297 1411h74l364 -676l606 676h74l-659 -735l-119 -676h-62l119 678z" />
<glyph unicode="Z" horiz-adv-x="1071" d="M82 0l4 33l1059 1317h-826l11 61h907l-6 -41l-1053 -1309h819l-8 -61h-907z" />
<glyph unicode="[" horiz-adv-x="559" d="M111 -463l333 1874h273l-8 -61h-211l-314 -1751h211l-12 -62h-272z" />
<glyph unicode="\" horiz-adv-x="911" d="M328 1411h67l436 -1411h-67z" />
<glyph unicode="]" horiz-adv-x="559" d="M8 -463l8 62h211l314 1751h-211l8 61h272l-334 -1874h-268z" />
<glyph unicode="_" horiz-adv-x="1345" d="M133 -119l10 62h1035l-11 -62h-1034z" />
<glyph unicode="`" horiz-adv-x="862" d="M504 1362h74l114 -260h-55z" />
<glyph unicode="a" d="M190 479q37 205 209.5 351.5t376.5 146.5q141 0 245.5 -70t147.5 -188l43 237h62l-168 -956h-62l39 238q-86 -119 -214 -188.5t-269 -69.5q-134 0 -237 66t-150 181q-31 76 -31 162q0 44 8 90zM252 479q-7 -40 -7 -78q0 -74 27 -141q41 -101 131 -160t207 -59t229.5 55 t190.5 152.5t94 212.5l2 18q5 34 5 67q0 82 -29 152q-40 100 -128 158.5t-206 58.5t-229.5 -59t-188.5 -159.5t-98 -217.5z" />
<glyph unicode="b" d="M178 0l268 1520h62l-143 -801q88 119 216.5 188.5t268.5 69.5q135 0 237 -67q102 -68 148 -182q30 -75 30 -159q0 -44 -8 -90q-37 -208 -208.5 -353.5t-376.5 -145.5q-141 0 -245.5 70t-147.5 188l-39 -238h-62zM319 461q-3 -29 -3 -56q0 -142 88 -243q104 -121 280 -121 q180 0 330 129t182 309q7 40 7 79q0 72 -26 138q-40 100 -129.5 159.5t-207.5 59.5q-120 0 -233.5 -58t-191 -159t-93.5 -219z" />
<glyph unicode="c" horiz-adv-x="1021" d="M190 481q27 148 115 262t211.5 174t259.5 60q175 0 293 -103l-45 -49q-103 90 -256 90q-184 0 -332 -120t-184 -314q-9 -47 -9 -90q1 -47 11 -91q20 -84 69 -140t123 -87.5t164 -31.5q152 0 291 90l31 -49q-161 -102 -332 -102q-102 0 -186.5 36t-140.5 100 q-56 66 -79 160q-13 52 -13 108q0 47 9 97z" />
<glyph unicode="d" d="M190 479q37 205 209.5 351.5t376.5 146.5q141 0 245.5 -70t147.5 -188l144 801h61l-268 -1520h-62l39 238q-86 -119 -214 -188.5t-269 -69.5q-134 0 -237 66t-150 181q-31 76 -31 162q0 44 8 90zM252 479q-7 -40 -7 -78q0 -74 27 -141q41 -101 131 -160t207 -59t229.5 55 t190.5 152.5t94 212.5l2 18q5 34 5 67q0 82 -29 152q-40 100 -128 158.5t-206 58.5t-229.5 -59t-188.5 -159.5t-98 -217.5z" />
<glyph unicode="e" horiz-adv-x="1150" d="M193 481q41 223 201.5 359.5t367.5 136.5q203 1 309 -135q79 -101 79 -253q0 -51 -9 -108l-4 -26h-885q-5 -37 -5 -70q0 -138 79 -230q98 -114 270 -114q115 0 218 51t175 144l49 -33q-87 -105 -205 -164t-247 -59q-204 0 -318 139q-84 103 -85 253q0 52 10 109zM258 510 h825q5 40 5 76q0 132 -71 219q-91 110 -263 110t-311.5 -111t-184.5 -294z" />
<glyph unicode="f" horiz-adv-x="632" d="M219 901l10 55h197l29 162q15 88 44 158.5t75.5 126.5t115.5 86.5t156 30.5h69l-12 -62h-69q-137 0 -214 -92.5t-104 -247.5l-29 -162h271l-10 -55h-271l-158 -901h-61l158 901h-197z" />
<glyph unicode="g" d="M150 -274l59 34q46 -89 125 -132.5t180 -43.5q105 0 189 26t158 87t126 171.5t78 268.5l16 101q-83 -118 -211.5 -188t-269.5 -70q-134 0 -237 66t-150 181q-31 76 -31 162q0 44 8 90q37 205 209.5 351.5t376.5 146.5q141 0 245.5 -70t147.5 -188l43 237h60l-146 -819 q-25 -141 -68.5 -247.5t-99 -175.5t-128.5 -112.5t-151 -61t-173 -17.5q-115 0 -208.5 51t-147.5 152zM252 479q-7 -40 -7 -78q0 -74 27 -141q41 -101 131 -160t207 -59q176 0 325.5 122t186.5 298l4 18q9 44 9 85q0 69 -25 132q-41 101 -132 160t-210 59q-118 0 -229.5 -59 t-188.5 -159.5t-98 -217.5z" />
<glyph unicode="h" horiz-adv-x="1150" d="M178 0l268 1520h62l-137 -775q39 81 107.5 135t140 75.5t147.5 21.5q169 -1 259 -113q66 -83 66 -207q0 -44 -8 -94l-98 -563h-61l98 563q8 45 8 85q0 104 -54 172q-76 95 -220 95q-70 0 -134 -20t-122.5 -62t-102 -115t-63.5 -171l-94 -547h-62z" />
<glyph unicode="i" horiz-adv-x="417" d="M178 0l168 956h62l-168 -956h-62zM375 1309q4 26 25.5 42.5t48.5 16.5q29 0 44.5 -16.5t10.5 -42.5q-5 -25 -26 -41.5t-50 -16.5q-26 0 -41.5 16.5t-11.5 41.5z" />
<glyph unicode="j" horiz-adv-x="417" d="M-229 -471l8 61h69q134 0 211.5 93t104.5 247l180 1026h64l-183 -1026q-70 -401 -385 -401h-69zM375 1309q4 26 25.5 42.5t48.5 16.5q29 0 44.5 -16.5t10.5 -42.5q-5 -25 -26 -41.5t-50 -16.5q-26 0 -41.5 16.5t-11.5 41.5z" />
<glyph unicode="k" horiz-adv-x="886" d="M178 0l268 1520h62l-174 -971l471 407h88l-487 -419l468 -537h-90l-454 520l-90 -520h-62z" />
<glyph unicode="l" horiz-adv-x="417" d="M178 0l268 1520h62l-268 -1520h-62z" />
<glyph unicode="m" horiz-adv-x="1894" d="M178 0l168 956h62l-37 -211q39 81 107.5 135t140 75.5t147.5 21.5q137 0 221 -72t96 -205q31 79 82.5 136t112 86t117.5 42t116 13q169 -1 259 -113q67 -83 67 -207q0 -44 -8 -94l-98 -563h-62l98 563q8 45 8 85q-1 104 -55 172q-76 95 -219 95q-70 0 -134 -20 t-122.5 -62t-102 -115t-63.5 -171l-94 -547h-61l98 563q8 45 8 85q0 104 -54 172q-76 95 -220 95q-70 0 -134 -20t-122.5 -62t-102 -115t-63.5 -171l-94 -547h-62z" />
<glyph unicode="n" horiz-adv-x="1148" d="M178 0l168 956h62l-37 -211q39 81 107.5 135t140 75.5t147.5 21.5q169 -1 259 -113q66 -83 66 -207q0 -44 -8 -94l-98 -563h-61l98 563q8 45 8 85q0 104 -54 172q-76 95 -220 95q-70 0 -134 -20t-122.5 -62t-102 -115t-63.5 -171l-94 -547h-62z" />
<glyph unicode="o" horiz-adv-x="1216" d="M190 481q27 148 115 262t212 174t261 60q101 0 186 -35.5t142 -98.5q56 -63 80 -157q13 -51 14 -107q0 -47 -10 -98q-39 -222 -208 -361.5t-380 -139.5q-102 0 -187 36t-141 100q-57 66 -80 160q-13 52 -13 108q0 47 9 97zM252 481q-9 -50 -10 -95q0 -134 80 -224 q106 -122 290.5 -121.5t332 121.5t183.5 319q9 47 9 90q-1 47 -11 89q-20 82 -69 137.5t-123 86.5t-164 31q-186 0 -334 -119.5t-184 -314.5z" />
<glyph unicode="p" d="M92 -463l254 1419h62l-43 -237q88 119 216.5 188.5t268.5 69.5q135 0 237 -66.5t148 -181.5q30 -76 30 -161q0 -44 -8 -91q-37 -205 -209 -351t-376 -146q-141 0 -245.5 70t-147.5 188l-125 -701h-62zM322 477q-9 -43 -9 -83q0 -70 27 -134q41 -101 133.5 -160t210.5 -59 q179 0 329.5 128.5t182.5 307.5q7 40 7 79q0 73 -27 140q-40 101 -129.5 160t-206.5 59q-175 0 -326 -122.5t-188 -296.5z" />
<glyph unicode="q" d="M190 477q37 208 209 354t377 146q141 0 245.5 -70t147.5 -188l43 237h62l-254 -1419h-62l125 701q-86 -119 -214 -188.5t-269 -69.5q-134 0 -237 66.5t-150 181.5q-31 75 -31 160q0 43 8 89zM252 477q-7 -40 -7 -77q0 -74 27 -140q41 -101 131 -160t207 -59 q185 0 338 128t178 308l2 19q3 29 3 57q0 140 -85 241q-101 121 -278 121q-118 0 -229.5 -59t-188.5 -160t-98 -219z" />
<glyph unicode="r" horiz-adv-x="745" d="M178 0l168 956h62l-48 -270q53 125 158 208t236 83q73 0 129 -19l-29 -59q-49 16 -111 16q-79 0 -147.5 -36t-115.5 -92t-84 -130t-58 -142.5t-33 -137.5l-65 -377h-62z" />
<glyph unicode="s" horiz-adv-x="858" d="M131 223h62q35 -182 243 -182q121 0 201 56.5t98 150.5q4 20 4 38q0 116 -149 158l-141 33q-28 6 -53 15.5t-52 25t-46 37.5q-18 21 -30 51q-12 28 -13 68q0 42 15 92q29 96 123.5 153.5t210.5 57.5q120 0 188 -63q62 -57 63 -151q0 -10 -1 -20h-63v6q1 74 -51 119 q-54 47 -146 47q-93 0 -166 -42t-96 -113q-8 -39 -11 -68t9 -53t24.5 -39.5t35 -28.5t41 -20t42.5 -14l137 -33q191 -50 191 -209q0 -23 -4 -47q-20 -122 -122 -195t-251 -73q-124 0 -208.5 63t-84.5 180z" />
<glyph unicode="t" horiz-adv-x="583" d="M215 901l10 55h174l72 406h61l-71 -406h237l-10 -55h-237l-158 -901h-62l158 901h-174z" />
<glyph unicode="u" horiz-adv-x="1148" d="M231 393l101 563h61l-100 -563q-8 -44 -8 -84q-1 -105 55 -173q76 -96 221 -95q71 0 134.5 20.5t120.5 63t100 115.5t65 170l96 546h62l-168 -956h-62l35 211q-30 -61 -76 -107.5t-99.5 -72.5t-108.5 -38.5t-111 -12.5q-169 0 -259 112q-67 83 -67 208q0 44 8 93z" />
<glyph unicode="v" horiz-adv-x="1019" d="M231 956h68l219 -893l541 893h67l-577 -956h-80z" />
<glyph unicode="w" horiz-adv-x="1689" d="M233 956h66l180 -870l482 870h100l180 -866l481 866h66l-528 -956h-64l-192 915l-504 -915h-66z" />
<glyph unicode="x" horiz-adv-x="919" d="M39 0l475 530l-231 426h77l203 -372l332 372h78l-381 -426l289 -530h-78l-260 475l-426 -475h-78z" />
<glyph unicode="y" horiz-adv-x="1019" d="M197 -463l272 453l-238 966h68l219 -893l541 893h67l-577 -956l-285 -463h-67z" />
<glyph unicode="z" horiz-adv-x="956" d="M88 0l4 37l838 858h-686l12 61h780l-6 -41l-835 -854h682l-9 -61h-780z" />
<glyph unicode="{" horiz-adv-x="729" d="M166 453l10 53q61 18 109.5 69t60.5 113l66 367q28 165 156 268.5t284 103.5h45l-12 -61h-45q-131 0 -237 -86t-130 -225l-65 -367q-12 -64 -52.5 -119.5t-99.5 -91.5q43 -37 65.5 -93t12.5 -114l-66 -360q-24 -140 50.5 -225.5t207.5 -85.5h45l-12 -62h-45 q-157 0 -247.5 103.5t-59.5 269.5l63 360q10 63 -19 114.5t-85 68.5z" />
<glyph unicode="|" horiz-adv-x="454" d="M147 -264l338 1896h62l-338 -1896h-62z" />
<glyph unicode="}" horiz-adv-x="729" d="M2 -463l10 62h43q132 0 238.5 86t130.5 225l65 360q10 58 51 114.5t97 92.5q-44 37 -65 92t-9 119l66 367q24 139 -52.5 225t-207.5 86h-45l12 61h45q156 0 248 -103.5t61 -268.5l-65 -367q-12 -62 18 -113.5t86 -68.5l-10 -53q-62 -17 -110 -69t-58 -114l-66 -360 q-32 -167 -157.5 -270t-284.5 -103h-41z" />
<glyph unicode="&#xa1;" horiz-adv-x="430" d="M98 -463l199 1116h61l-198 -1116h-62zM313 922q4 24 25.5 40.5t48.5 16.5q29 0 44.5 -16t10.5 -41q-5 -26 -25.5 -43t-49.5 -17q-27 0 -42.5 17t-11.5 43z" />
<glyph unicode="&#xa2;" horiz-adv-x="1064" d="M199 481q36 206 185 339.5t345 154.5l37 205h61l-36 -203q160 -3 286 -103l-43 -49q-108 90 -258 90q-184 0 -332 -120t-184 -314q-18 -97 1.5 -180.5t69 -140t123.5 -88t164 -31.5q154 0 293 90l29 -49q-150 -99 -326 -102l-39 -224h-61l41 226q-190 18 -291 154.5 t-65 344.5z" />
<glyph unicode="&#xa3;" horiz-adv-x="1290" d="M96 0l8 61h211l99 555h-174l10 58h174l70 389q19 110 92 198t172 133.5t203 45.5q152 0 244 -92t75 -244h-61q12 124 -66 199t-203 75q-135 0 -253 -89t-142 -226l-70 -389h248l-10 -58h-248l-98 -555h659q37 0 68 27t37 68l14 88h62l-15 -88q-12 -66 -62 -111t-112 -45 h-932z" />
<glyph unicode="&#xa4;" horiz-adv-x="1218" d="M217 309l184 154q-71 108 -44.5 245.5t132.5 243.5l-131 160l52 43l133 -162q116 86 251.5 85t223.5 -89l196 166l35 -43l-194 -166q66 -100 44 -237.5t-124 -239.5l133 -164l-51 -43l-133 164q-123 -91 -260.5 -92.5t-229.5 86.5l-184 -154zM416.5 706 q-23.5 -131 50.5 -221t203 -90t237 90q107 92 131 221t-49 220q-74 90 -204 90t-236 -90q-109 -89 -132.5 -220z" />
<glyph unicode="&#xa5;" horiz-adv-x="1259" d="M301 246l10 61h338l35 189h-338l10 61h338l23 121l-398 733h74l365 -676l606 676h74l-660 -735l-22 -119h338l-11 -61h-338l-34 -189h338l-11 -61h-338l-41 -246h-61l41 246h-338z" />
<glyph unicode="&#xa6;" horiz-adv-x="462" d="M152 -264l131 731h61l-131 -731h-61zM358 899l131 733h62l-131 -733h-62z" />
<glyph unicode="&#xa7;" horiz-adv-x="1015" d="M135 -66l60 27q25 -77 93 -120.5t163 -43.5q134 0 243 88.5t133 227.5l52 286q24 144 -52.5 230t-212.5 86q-71 0 -135 -23l10 64q61 20 138 20q160 0 251 -104.5t62 -272.5l-51 -286q-32 -168 -159.5 -272.5t-287.5 -104.5q-112 0 -195 52.5t-112 145.5zM283 764l53 287 q29 168 156.5 272t287.5 104q112 0 195 -52.5t112 -145.5l-61 -27q-23 77 -92 120.5t-164 43.5q-134 0 -242.5 -88t-132.5 -227l-51 -287q-24 -144 52.5 -229.5t211.5 -85.5q78 0 133 22l-8 -63q-65 -21 -137 -21q-161 0 -252.5 104.5t-60.5 272.5z" />
<glyph unicode="&#xa8;" horiz-adv-x="933" d="M469 1272q4 26 25.5 42.5t48.5 16.5q29 0 44.5 -16.5t10.5 -42.5q-5 -25 -26 -41.5t-50 -16.5q-26 0 -41.5 16.5t-11.5 41.5zM782 1272q4 26 25.5 42.5t48.5 16.5q29 0 44.5 -16.5t10.5 -42.5q-5 -25 -25.5 -41.5t-49.5 -16.5q-27 0 -42.5 17t-11.5 41z" />
<glyph unicode="&#xa9;" horiz-adv-x="1685" d="M250 702q36 197 159.5 363.5t305 264t377.5 97.5q147 0 270 -57.5t201.5 -155t111.5 -231.5t6 -281q-27 -148 -107 -281.5t-192.5 -230t-255.5 -153.5t-290 -57q-148 0 -270.5 57t-200.5 153.5t-110 230t-5 281.5zM311 702q-24 -135 5 -257t100.5 -210.5t183.5 -141 t246 -52.5q180 0 347 88.5t280.5 240.5t146.5 332q32 180 -28.5 333t-196.5 242t-314 89q-181 0 -348 -89t-280 -241.5t-142 -333.5zM629 702q25 151 144.5 257t264.5 106q66 0 122 -23.5t91 -64.5l-47 -45q-69 72 -176 72q-120 0 -216.5 -88t-121.5 -214q-25 -123 43 -211 t187 -88q112 0 202 72l33 -47q-116 -86 -244 -86q-146 0 -226.5 105t-55.5 255z" />
<glyph unicode="&#xaa;" horiz-adv-x="1001" d="M283 555l8 59h624l-8 -59h-624zM348 1051q25 135 138 231t249 96q85 0 147 -37t95 -104l22 127h62l-113 -629h-61l22 127q-55 -65 -131 -102t-160 -37q-135 0 -215 96t-55 232zM410 1051q-20 -110 45 -189.5t174 -79.5q110 0 201.5 75.5t111.5 180.5l4 13 q17 111 -47 188.5t-176 77.5q-109 0 -201 -78t-112 -188z" />
<glyph unicode="&#xab;" horiz-adv-x="821" d="M195 475l358 424h74l-359 -424l211 -424h-76zM426 475l358 424h74l-358 -424l211 -424h-76z" />
<glyph unicode="&#xac;" horiz-adv-x="1339" d="M301 618l10 62h981l-71 -408h-62l62 346h-920z" />
<glyph unicode="&#xad;" horiz-adv-x="972" d="M231 430l11 62h657l-10 -62h-658z" />
<glyph unicode="&#xae;" horiz-adv-x="1685" d="M250 702q36 197 159.5 363.5t305 264t377.5 97.5q147 0 270 -57.5t201.5 -155t111.5 -231.5t6 -281q-27 -148 -107 -281.5t-192.5 -230t-255.5 -153.5t-290 -57q-148 0 -270.5 57t-200.5 153.5t-110 230t-5 281.5zM311 702q-24 -135 5 -257t100.5 -210.5t183.5 -141 t246 -52.5q180 0 347 88.5t280.5 240.5t146.5 332q32 180 -28.5 333t-196.5 242t-314 89q-180 0 -346 -89t-278.5 -241.5t-145.5 -333.5zM678 338l127 737h270q112 0 155.5 -69.5t24.5 -169.5q-16 -92 -75 -158.5t-156 -77.5l127 -262h-70l-127 260h-172l-43 -260h-61z M795 659h204q84 0 133 50.5t62 126.5q13 75 -17 126.5t-110 51.5h-209z" />
<glyph unicode="&#xaf;" horiz-adv-x="958" d="M461 1233l12 55h467l-12 -55h-467z" />
<glyph unicode="&#xb0;" horiz-adv-x="724" d="M344 1198q17 97 96 163t174 66q96 0 151 -65.5t38 -163.5q-17 -94 -97 -161.5t-174 -67.5q-95 0 -150 67.5t-38 161.5zM406 1198q-12 -69 28 -118.5t109 -49.5t127.5 49.5t70.5 118.5q12 71 -28.5 119.5t-110.5 48.5t-127 -48.5t-69 -119.5z" />
<glyph unicode="&#xb1;" horiz-adv-x="1134" d="M166 0l8 61h803l-8 -61h-803zM252 500l12 61h371l59 336h62l-60 -336h371l-12 -61h-371l-59 -340h-62l60 340h-371z" />
<glyph unicode="&#xb2;" horiz-adv-x="645" d="M250 967l4 22l416 410q89 89 102 166q12 74 -31.5 121t-122.5 47q-67 0 -123 -36.5t-79 -97.5l-58 17q32 81 107 129.5t166 48.5q106 0 164 -63.5t39 -165.5q-20 -106 -127 -207l-338 -330h370l-10 -61h-479z" />
<glyph unicode="&#xb3;" horiz-adv-x="663" d="M262 1096l57 32q30 -100 162 -110q87 -4 153.5 44t90.5 128q13 80 -31.5 132t-120.5 52h-79l8 60h80q58 0 110.5 39t69.5 98q18 65 -16.5 110.5t-114.5 51.5q-54 4 -108 -19.5t-85 -64.5l-45 30q42 56 110.5 87.5t141.5 27.5q112 -7 157.5 -72.5t20.5 -158.5 q-12 -49 -50.5 -91t-92.5 -65q65 -17 94.5 -85t11.5 -142q-28 -102 -120.5 -166.5t-200.5 -57.5q-80 5 -127 36t-76 104z" />
<glyph unicode="&#xb4;" horiz-adv-x="862" d="M459 1102l209 260h73l-227 -260h-55z" />
<glyph unicode="&#xb5;" horiz-adv-x="1148" d="M139 -283l219 1239h62l-98 -563q-29 -162 46.5 -257t219.5 -95q71 0 134.5 20.5t120.5 63t100 115.5t65 170l96 546h61l-166 -956h-61l35 211q-30 -61 -76 -107.5t-99.5 -72.5t-108.5 -38.5t-111 -12.5q-107 0 -185.5 45.5t-113.5 130.5l-78 -439h-62z" />
<glyph unicode="&#xb6;" horiz-adv-x="1216" d="M250 985q29 176 176.5 301t325.5 125h102l-274 -1561h-62l125 707q-195 0 -310 125t-83 303zM473 -397l10 61h80q67 0 125 50t70 116l278 1581h103q102 0 160.5 -72.5t41.5 -175.5l-20 -129h-61l20 129q17 77 -28 132t-122 55h-40l-271 -1520q-17 -91 -96.5 -159 t-169.5 -68h-80z" />
<glyph unicode="&#xb7;" horiz-adv-x="444" d="M240 479q4 26 25 43t48 17q29 0 45 -17t11 -43q-5 -25 -26 -41t-50 -16q-27 0 -42 16.5t-11 40.5z" />
<glyph unicode="&#xb8;" horiz-adv-x="1021" d="M289 -205h59q-7 -26 2 -59v2q11 -37 36 -57.5t60 -20.5q31 0 50 8q42 17 68 47t30 66q3 19 -4 53l-43 176h67l37 -153q17 -74 -22.5 -143.5t-118.5 -98.5q-75 -30 -137.5 -1.5t-79.5 101.5q-10 47 -4 80z" />
<glyph unicode="&#xb9;" horiz-adv-x="385" d="M348 1645l12 61l215 74l-143 -813h-61l129 727z" />
<glyph unicode="&#xba;" horiz-adv-x="991" d="M283 555l8 59h624l-8 -59h-624zM348 1051q24 147 137 237t252 90t217 -89t54 -238q-24 -144 -137.5 -236t-249.5 -92q-139 0 -218 91.5t-55 236.5zM412 1051q-20 -121 43 -195t176 -74t205 75t112 194q20 120 -45.5 193t-177.5 73q-114 0 -203.5 -73t-109.5 -193z" />
<glyph unicode="&#xbb;" horiz-adv-x="821" d="M127 51l358 424l-204 424h73l205 -424l-356 -424h-76zM358 51l359 424l-205 424h74l205 -424l-357 -424h-76z" />
<glyph unicode="&#xbc;" horiz-adv-x="1507" d="M178 -20l1168 1398h73l-1167 -1398h-74zM313 1221l15 61l213 74l-144 -813h-61l129 727zM831 176l560 641h45l-103 -584h127l-12 -57h-127l-29 -176h-61l29 176h-429zM956 233h316l82 461z" />
<glyph unicode="&#xbd;" horiz-adv-x="1593" d="M178 -20l1168 1398h73l-1167 -1398h-74zM313 1221l15 61l213 74l-144 -813h-61l129 727zM999 0l2 23l414 409q91 85 105 166q13 74 -31 121t-123 47q-67 0 -125 -36.5t-82 -96.5l-53 16q31 81 105 129.5t165 48.5q106 0 164.5 -64t40.5 -165q-20 -106 -127 -207 l-338 -330h371l-8 -61h-480z" />
<glyph unicode="&#xbe;" horiz-adv-x="1736" d="M227 672l56 33q31 -101 161 -111q87 -4 155 44t91 128q13 80 -31.5 132t-121.5 52h-80l10 60h80q58 0 109.5 39t68.5 98q18 65 -16.5 110.5t-114.5 51.5q-54 4 -107 -19.5t-84 -64.5l-45 30q42 56 110.5 87.5t141.5 27.5q112 -7 158 -73t20 -158q-13 -49 -52 -91t-93 -65 q65 -17 95 -85.5t12 -141.5q-28 -102 -119.5 -166.5t-200.5 -57.5q-80 5 -127 36t-76 104zM408 -20l1167 1398h74l-1168 -1398h-73zM1061 176l559 641h45l-102 -584h127l-13 -57h-127l-28 -176h-62l29 176h-428zM1186 233h315l82 461z" />
<glyph unicode="&#xbf;" horiz-adv-x="942" d="M61 -96q24 136 119.5 231.5t225.5 134.5q47 14 75.5 24.5t63 29.5t55 41.5t38.5 59t26 83.5l26 145h62l-27 -145q-11 -59 -33 -104.5t-47.5 -74.5t-65.5 -52.5t-76 -37t-91 -28.5q-108 -32 -187.5 -112.5t-101.5 -194.5q-24 -138 61 -227t222 -89q125 0 230 77t136 204 l59 -6q-40 -153 -164 -244.5t-274 -91.5q-78 0 -145.5 27t-114.5 75t-67.5 120t-4.5 155zM702 922q5 25 26 41t50 16q27 0 42 -16.5t11 -40.5q-4 -26 -25 -43t-48 -17q-29 0 -45 17t-11 43z" />
<glyph unicode="&#xc0;" horiz-adv-x="1265" d="M59 0l789 1411h65l291 -1411h-65l-82 393h-713l-219 -393h-66zM375 449h672l-181 876zM739 1817h74l115 -261h-56z" />
<glyph unicode="&#xc1;" horiz-adv-x="1265" d="M59 0l789 1411h65l291 -1411h-65l-82 393h-713l-219 -393h-66zM375 449h672l-181 876zM901 1556l209 261h74l-228 -261h-55z" />
<glyph unicode="&#xc2;" horiz-adv-x="1265" d="M59 0l789 1411h65l291 -1411h-65l-82 393h-713l-219 -393h-66zM375 449h672l-181 876zM631 1556l272 261h98l179 -261h-62l-174 224l-252 -224h-61z" />
<glyph unicode="&#xc3;" horiz-adv-x="1265" d="M59 0l789 1411h65l291 -1411h-65l-82 393h-713l-219 -393h-66zM375 449h672l-181 876zM678 1610q16 73 66 109t98 36q26 0 47.5 -9t29.5 -16t29 -26q42 -39 78 -39q28 0 56.5 22t37.5 68h62q-18 -74 -67.5 -109.5t-96.5 -35.5q-26 0 -47.5 8t-31.5 15t-32 24 q-16 16 -23 22.5t-22 13.5t-31 7q-28 0 -55 -22t-37 -68h-61z" />
<glyph unicode="&#xc4;" horiz-adv-x="1265" d="M59 0l789 1411h65l291 -1411h-65l-82 393h-713l-219 -393h-66zM375 449h672l-181 876zM715 1726q4 26 25 43t48 17q29 0 45 -17t11 -43q-5 -25 -26 -41t-50 -16q-27 0 -42 16.5t-11 40.5zM1028 1726q4 26 25.5 43t48.5 17q29 0 44.5 -17t10.5 -43q-5 -25 -26 -41t-50 -16 q-27 0 -42 16.5t-11 40.5z" />
<glyph unicode="&#xc5;" horiz-adv-x="1265" d="M59 0l789 1411h65l291 -1411h-65l-82 393h-713l-219 -393h-66zM375 449h672l-181 876zM774 1763q12 72 70 122t127 50q72 0 112.5 -50t28.5 -122q-12 -69 -71 -118.5t-132 -49.5q-69 0 -108 48t-27 120zM829 1763q-8 -48 18 -80t73 -32q50 0 90 32.5t47 79.5 q10 49 -18 83t-78 34q-48 0 -86.5 -34t-45.5 -83z" />
<glyph unicode="&#xc6;" horiz-adv-x="1996" d="M41 0l1178 1411h886l-10 -61h-704l-111 -627h616l-12 -61h-616l-107 -601h729l-8 -61h-790l69 399h-715l-331 -399h-74zM496 461h675l158 889h-90z" />
<glyph unicode="&#xc7;" horiz-adv-x="1347" d="M244 702q36 197 157 363.5t298 264t368 97.5q131 0 240 -46t186 -130l-47 -45q-157 160 -391 160q-175 0 -336 -89t-271 -241.5t-143 -333.5q-32 -180 24.5 -332t186.5 -240.5t303 -88.5q237 0 445 158l32 -45q-225 -174 -487 -174q-4 0 -9.5 1t-8.5 1l28 -125 q17 -74 -22.5 -143.5t-118.5 -98.5q-75 -30 -137.5 -1.5t-79.5 101.5q-10 47 -4 80h59q-7 -26 2 -59v2q7 -36 33.5 -57t62.5 -21q31 0 50 8q42 17 68 47t30 66q3 19 -4 53l-35 152q-168 21 -289 120.5t-172 256t-18 339.5z" />
<glyph unicode="&#xc8;" horiz-adv-x="1122" d="M217 0l248 1411h766l-10 -61h-705l-110 -627h616l-12 -61h-617l-106 -601h729l-8 -61h-791zM723 1817h74l114 -261h-55z" />
<glyph unicode="&#xc9;" horiz-adv-x="1122" d="M217 0l248 1411h766l-10 -61h-705l-110 -627h616l-12 -61h-617l-106 -601h729l-8 -61h-791zM772 1556l209 261h74l-228 -261h-55z" />
<glyph unicode="&#xca;" horiz-adv-x="1122" d="M217 0l248 1411h766l-10 -61h-705l-110 -627h616l-12 -61h-617l-106 -601h729l-8 -61h-791zM571 1556l273 261h98l178 -261h-61l-174 224l-252 -224h-62z" />
<glyph unicode="&#xcb;" horiz-adv-x="1122" d="M217 0l248 1411h766l-10 -61h-705l-110 -627h616l-12 -61h-617l-106 -601h729l-8 -61h-791zM655 1726q4 26 25.5 43t48.5 17q29 0 44.5 -17t10.5 -43q-5 -25 -25.5 -41t-49.5 -16q-27 0 -42.5 16.5t-11.5 40.5zM969 1726q4 26 25 43t48 17q29 0 45 -17t11 -43 q-5 -25 -26 -41t-50 -16q-27 0 -42 16.5t-11 40.5z" />
<glyph unicode="&#xcc;" horiz-adv-x="495" d="M217 0l248 1411h61l-247 -1411h-62zM360 1817h74l115 -261h-55z" />
<glyph unicode="&#xcd;" horiz-adv-x="495" d="M217 0l248 1411h61l-247 -1411h-62zM489 1556l209 261h74l-227 -261h-56z" />
<glyph unicode="&#xce;" horiz-adv-x="495" d="M217 0l248 1411h61l-247 -1411h-62zM248 1556l272 261h98l179 -261h-62l-174 224l-252 -224h-61z" />
<glyph unicode="&#xcf;" horiz-adv-x="495" d="M217 0l248 1411h61l-247 -1411h-62zM332 1726q4 26 25.5 43t48.5 17q29 0 44.5 -17t10.5 -43q-5 -25 -26 -41t-50 -16q-27 0 -42 16.5t-11 40.5zM645 1726q4 26 25.5 43t48.5 17q29 0 44.5 -17t10.5 -43q-5 -25 -26 -41t-50 -16q-27 0 -42 16.5t-11 40.5z" />
<glyph unicode="&#xd0;" horiz-adv-x="1486" d="M137 666l10 57h201l121 688h520q193 0 318.5 -94t168.5 -253.5t7 -361.5q-27 -151 -91.5 -279t-158 -222.5t-220.5 -147.5t-272 -53h-520l117 666h-201zM291 61h459q131 0 245.5 49t199.5 135t143 203t83 254q33 186 -5.5 331.5t-151 231t-285.5 85.5h-459l-110 -627h395 l-10 -57h-396z" />
<glyph unicode="&#xd1;" horiz-adv-x="1402" d="M217 0l248 1411h74l598 -1325l235 1325h62l-248 -1411h-74l-602 1319l-231 -1319h-62zM748 1610q16 74 65.5 109.5t97.5 35.5q26 0 47.5 -9t30.5 -16.5t29 -25.5q42 -39 78 -39q28 0 56.5 22t37.5 68h61q-18 -74 -67.5 -109.5t-96.5 -35.5q-26 0 -47.5 8t-31 14.5 t-31.5 24.5q-16 16 -23 22.5t-22 13.5t-31 7q-28 0 -55 -22t-37 -68h-61z" />
<glyph unicode="&#xd2;" horiz-adv-x="1656" d="M242 702q36 197 158 363.5t301.5 264t375.5 97.5t343 -97.5t211.5 -264t29.5 -363.5q-27 -148 -106 -281.5t-191 -230t-254 -153.5t-289 -57q-146 0 -267.5 57t-198.5 153.5t-108.5 230t-4.5 281.5zM303 702q-32 -180 26.5 -332t191.5 -240.5t310 -88.5q180 0 345.5 88.5 t277.5 240.5t145 332q32 181 -27 333.5t-193 241.5t-312 89q-133 0 -263 -52.5t-232.5 -141.5t-174.5 -212t-94 -258zM936 1819h74l114 -260h-55z" />
<glyph unicode="&#xd3;" horiz-adv-x="1656" d="M242 702q36 197 158 363.5t301.5 264t375.5 97.5t343 -97.5t211.5 -264t29.5 -363.5q-27 -148 -106 -281.5t-191 -230t-254 -153.5t-289 -57q-146 0 -267.5 57t-198.5 153.5t-108.5 230t-4.5 281.5zM303 702q-32 -180 26.5 -332t191.5 -240.5t310 -88.5q180 0 345.5 88.5 t277.5 240.5t145 332q32 181 -27 333.5t-193 241.5t-312 89q-133 0 -263 -52.5t-232.5 -141.5t-174.5 -212t-94 -258zM1055 1559l209 260h73l-227 -260h-55z" />
<glyph unicode="&#xd4;" horiz-adv-x="1656" d="M242 702q36 197 158 363.5t301.5 264t375.5 97.5t343 -97.5t211.5 -264t29.5 -363.5q-27 -148 -106 -281.5t-191 -230t-254 -153.5t-289 -57q-146 0 -267.5 57t-198.5 153.5t-108.5 230t-4.5 281.5zM303 702q-32 -180 26.5 -332t191.5 -240.5t310 -88.5q180 0 345.5 88.5 t277.5 240.5t145 332q32 181 -27 333.5t-193 241.5t-312 89q-133 0 -263 -52.5t-232.5 -141.5t-174.5 -212t-94 -258zM834 1559l272 260h98l178 -260h-61l-174 223l-252 -223h-61z" />
<glyph unicode="&#xd5;" horiz-adv-x="1656" d="M242 702q36 197 158 363.5t301.5 264t375.5 97.5t343 -97.5t211.5 -264t29.5 -363.5q-27 -148 -106 -281.5t-191 -230t-254 -153.5t-289 -57q-146 0 -267.5 57t-198.5 153.5t-108.5 230t-4.5 281.5zM303 702q-32 -180 26.5 -332t191.5 -240.5t310 -88.5q180 0 345.5 88.5 t277.5 240.5t145 332q32 181 -27 333.5t-193 241.5t-312 89q-133 0 -263 -52.5t-232.5 -141.5t-174.5 -212t-94 -258zM883 1612q16 73 66 109t98 36q13 0 25 -2.5t20 -5t18.5 -9t15 -10t15 -12.5t14.5 -12q39 -39 76 -39q28 0 55.5 22t38.5 68h61q-18 -74 -67 -109.5 t-96 -35.5q-26 0 -47.5 8t-31.5 15t-32 24q-2 2 -8 7.5t-8 7.5t-7.5 6.5t-8 6t-7.5 5t-9 4.5t-9 3t-10 2.5t-11 0.5q-28 0 -54 -22t-36 -68h-61z" />
<glyph unicode="&#xd6;" horiz-adv-x="1656" d="M242 702q36 197 158 363.5t301.5 264t375.5 97.5t343 -97.5t211.5 -264t29.5 -363.5q-27 -148 -106 -281.5t-191 -230t-254 -153.5t-289 -57q-146 0 -267.5 57t-198.5 153.5t-108.5 230t-4.5 281.5zM303 702q-32 -180 26.5 -332t191.5 -240.5t310 -88.5q180 0 345.5 88.5 t277.5 240.5t145 332q32 181 -27 333.5t-193 241.5t-312 89q-133 0 -263 -52.5t-232.5 -141.5t-174.5 -212t-94 -258zM920 1729q4 26 24.5 42.5t46.5 16.5q29 0 45.5 -16.5t12.5 -42.5q-5 -25 -27 -41.5t-51 -16.5q-26 0 -40.5 16.5t-10.5 41.5zM1233 1729q4 26 24.5 42.5 t47.5 16.5q29 0 45 -16.5t12 -42.5q-5 -25 -27 -41.5t-51 -16.5q-26 0 -40.5 16.5t-10.5 41.5z" />
<glyph unicode="&#xd7;" horiz-adv-x="937" d="M215 293l309 262l-213 260l49 43l213 -260l310 262l37 -43l-308 -262l215 -264l-53 -43l-217 262l-309 -260z" />
<glyph unicode="&#xd8;" horiz-adv-x="1654" d="M115 23l223 190q-147 209 -98 489q27 147 106 281t190.5 231.5t253 155t287.5 57.5q139 0 256 -50t197 -142l223 192l35 -41l-227 -194q147 -210 98 -490q-27 -148 -106 -281.5t-191 -230t-254 -153.5t-289 -57q-140 0 -253.5 49t-192.5 141l-223 -190zM301 702 q-46 -256 86 -446l1088 934q-155 176 -408 176q-178 0 -343 -89t-277.5 -241.5t-145.5 -333.5zM424 213q156 -172 407 -172q180 0 345 88.5t276.5 240.5t144.5 332q23 126 -0.5 240.5t-85.5 204.5z" />
<glyph unicode="&#xd9;" horiz-adv-x="1380" d="M285 463l166 948h61l-164 -948q-36 -186 66.5 -305t281.5 -119q118 0 224 52.5t181 150t99 221.5l164 948h61l-163 -948q-26 -143 -113 -255t-208.5 -171.5t-254.5 -59.5q-205 0 -321 135t-80 351zM815 1817h74l115 -261h-56z" />
<glyph unicode="&#xda;" horiz-adv-x="1380" d="M285 463l166 948h61l-164 -948q-36 -186 66.5 -305t281.5 -119q118 0 224 52.5t181 150t99 221.5l164 948h61l-163 -948q-26 -143 -113 -255t-208.5 -171.5t-254.5 -59.5q-205 0 -321 135t-80 351zM905 1556l209 261h74l-227 -261h-56z" />
<glyph unicode="&#xdb;" horiz-adv-x="1380" d="M285 463l166 948h61l-164 -948q-36 -186 66.5 -305t281.5 -119q118 0 224 52.5t181 150t99 221.5l164 948h61l-163 -948q-26 -143 -113 -255t-208.5 -171.5t-254.5 -59.5q-205 0 -321 135t-80 351zM690 1556l273 261h98l178 -261h-61l-174 224l-252 -224h-62z" />
<glyph unicode="&#xdc;" horiz-adv-x="1380" d="M285 463l166 948h61l-164 -948q-36 -186 66.5 -305t281.5 -119q118 0 224 52.5t181 150t99 221.5l164 948h61l-163 -948q-26 -143 -113 -255t-208.5 -171.5t-254.5 -59.5q-205 0 -321 135t-80 351zM774 1726q4 26 25.5 43t48.5 17q29 0 44.5 -17t10.5 -43q-5 -25 -26 -41 t-50 -16q-27 0 -42 16.5t-11 40.5zM1087 1726q4 26 25.5 43t48.5 17q29 0 45 -17t11 -43q-5 -25 -26 -41t-50 -16q-27 0 -42.5 16.5t-11.5 40.5z" />
<glyph unicode="&#xdd;" horiz-adv-x="1214" d="M297 1411h74l364 -676l606 676h74l-659 -735l-119 -676h-62l119 678zM807 1556l209 261h74l-228 -261h-55z" />
<glyph unicode="&#xde;" horiz-adv-x="1159" d="M217 0l248 1411h61l-49 -276h391q173 0 269 -113t63 -295q-32 -185 -169 -300.5t-308 -115.5h-391l-53 -311h-62zM342 373h391q144 0 260.5 98.5t145.5 255.5q27 156 -53 251t-228 95h-391z" />
<glyph unicode="&#xdf;" horiz-adv-x="1656" d="M232 531.5q-8 95.5 14 197.5h1356q18 137 -14.5 255t-101 198t-168.5 127.5t-212 54t-236.5 -33.5t-236.5 -126l-35 47q125 97 263.5 140.5t263 35t235 -64t185.5 -147.5t107.5 -226t6.5 -289q-33 -197 -154.5 -362.5t-301 -261.5t-374.5 -96q-102 0 -192.5 27t-160.5 76 t-124.5 117.5t-83 152t-36.5 179zM299 672q-21 -173 40.5 -317.5t193 -229t305.5 -84.5q175 0 336 85t271 229t148 317h-1294z" />
<glyph unicode="&#xe0;" d="M190 479q37 205 209.5 351.5t376.5 146.5q141 0 245.5 -70t147.5 -188l43 237h62l-168 -956h-62l39 238q-86 -119 -214 -188.5t-269 -69.5q-134 0 -237 66t-150 181t-23 252zM252 479q-21 -118 20 -219t131 -160t207 -59t229.5 55t190.5 152.5t94 212.5l2 18 q16 120 -24 219.5t-128 158t-206 58.5t-229.5 -59t-188.5 -159.5t-98 -217.5zM653 1362h74l115 -260h-56z" />
<glyph unicode="&#xe1;" d="M190 479q37 205 209.5 351.5t376.5 146.5q141 0 245.5 -70t147.5 -188l43 237h62l-168 -956h-62l39 238q-86 -119 -214 -188.5t-269 -69.5q-134 0 -237 66t-150 181t-23 252zM252 479q-21 -118 20 -219t131 -160t207 -59t229.5 55t190.5 152.5t94 212.5l2 18 q16 120 -24 219.5t-128 158t-206 58.5t-229.5 -59t-188.5 -159.5t-98 -217.5zM766 1102l209 260h74l-228 -260h-55z" />
<glyph unicode="&#xe2;" d="M190 479q37 205 209.5 351.5t376.5 146.5q141 0 245.5 -70t147.5 -188l43 237h62l-168 -956h-62l39 238q-86 -119 -214 -188.5t-269 -69.5q-134 0 -237 66t-150 181t-23 252zM252 479q-21 -118 20 -219t131 -160t207 -59t229.5 55t190.5 152.5t94 212.5l2 18 q16 120 -24 219.5t-128 158t-206 58.5t-229.5 -59t-188.5 -159.5t-98 -217.5zM555 1102l272 260h99l178 -260h-62l-174 223l-252 -223h-61z" />
<glyph unicode="&#xe3;" d="M190 479q37 205 209.5 351.5t376.5 146.5q141 0 245.5 -70t147.5 -188l43 237h62l-168 -956h-62l39 238q-86 -119 -214 -188.5t-269 -69.5q-134 0 -237 66t-150 181t-23 252zM252 479q-21 -118 20 -219t131 -160t207 -59t229.5 55t190.5 152.5t94 212.5l2 18 q16 120 -24 219.5t-128 158t-206 58.5t-229.5 -59t-188.5 -159.5t-98 -217.5zM602 1155q11 51 41.5 85.5t61.5 47t59 12.5q26 0 48 -8.5t33 -17t29 -25.5q39 -39 76 -39q28 0 55 22t37 68h62q-11 -51 -41.5 -85.5t-61.5 -47t-59 -12.5q-26 0 -47.5 8t-31.5 15t-32 24 q-3 3 -11.5 11t-11.5 11t-10.5 8t-12.5 7t-13 4t-16 2q-28 0 -55 -22t-37 -68h-62z" />
<glyph unicode="&#xe4;" d="M190 479q37 205 209.5 351.5t376.5 146.5q141 0 245.5 -70t147.5 -188l43 237h62l-168 -956h-62l39 238q-86 -119 -214 -188.5t-269 -69.5q-134 0 -237 66t-150 181t-23 252zM252 479q-21 -118 20 -219t131 -160t207 -59t229.5 55t190.5 152.5t94 212.5l2 18 q16 120 -24 219.5t-128 158t-206 58.5t-229.5 -59t-188.5 -159.5t-98 -217.5zM639 1272q4 26 25.5 42.5t48.5 16.5q29 0 44.5 -16.5t10.5 -42.5q-5 -25 -26 -41.5t-50 -16.5q-26 0 -41.5 16.5t-11.5 41.5zM952 1272q4 26 25.5 42.5t48.5 16.5q29 0 44.5 -16.5t10.5 -42.5 q-5 -25 -25.5 -41.5t-49.5 -16.5q-27 0 -42.5 17t-11.5 41z" />
<glyph unicode="&#xe5;" d="M190 479q37 205 209.5 351.5t376.5 146.5q141 0 245.5 -70t147.5 -188l43 237h62l-168 -956h-62l39 238q-86 -119 -214 -188.5t-269 -69.5q-134 0 -237 66t-150 181t-23 252zM252 479q-21 -118 20 -219t131 -160t207 -59t229.5 55t190.5 152.5t94 212.5l2 18 q16 120 -24 219.5t-128 158t-206 58.5t-229.5 -59t-188.5 -159.5t-98 -217.5zM698 1309q12 72 70 122t127 50q72 0 112.5 -50t28.5 -122q-12 -69 -70 -118.5t-130 -49.5q-70 0 -110 48.5t-28 119.5zM754 1309q-8 -48 18.5 -80.5t73.5 -32.5q49 0 88 33t47 80q10 49 -18 82.5 t-78 33.5q-47 0 -83.5 -33t-47.5 -83z" />
<glyph unicode="&#xe6;" horiz-adv-x="2086" d="M190 479q37 205 209.5 351.5t376.5 146.5q141 0 245.5 -70t147.5 -188l43 237h62l-43 -225q82 117 204.5 181.5t262.5 64.5q203 0 309 -135.5t70 -360.5l-4 -26h-885q-24 -186 74 -300t270 -114q115 0 218 51t175 144l49 -33q-87 -105 -205 -164t-247 -59 q-140 0 -239.5 65t-137.5 182l-39 -227h-62l39 238q-86 -119 -214 -188.5t-269 -69.5q-134 0 -237 66t-150 181t-23 252zM252 479q-21 -118 20 -219t131 -160t207 -59q176 0 325.5 122t186.5 298l4 18q24 117 -16.5 217.5t-131.5 159.5t-210 59q-118 0 -229.5 -59 t-188.5 -159.5t-98 -217.5zM1194 510h825q25 185 -66 295t-263 110t-311.5 -111t-184.5 -294z" />
<glyph unicode="&#xe7;" horiz-adv-x="1024" d="M193 481q27 148 115 262t211 174t259 60q175 0 293 -103l-43 -49q-108 90 -258 90q-184 0 -332 -120t-184 -314q-18 -97 1.5 -180.5t69 -140t123.5 -88t164 -31.5q154 0 293 90l29 -49q-155 -102 -332 -102h-4l31 -123q17 -74 -23 -143.5t-119 -98.5q-73 -30 -137.5 -1.5 t-81.5 101.5q-10 43 -4 80h60q-2 -22 4 -59v2q7 -36 33.5 -57t62.5 -21q30 0 49 8q42 17 68 47t30 66q3 19 -4 53l-35 152q-184 25 -279.5 158t-59.5 337z" />
<glyph unicode="&#xe8;" horiz-adv-x="1150" d="M193 481q41 223 201.5 359.5t367.5 136.5q203 0 309 -135.5t70 -360.5l-4 -26h-885q-24 -186 74 -300t270 -114q115 0 218 51t175 144l49 -33q-87 -105 -205 -164t-247 -59q-205 0 -318.5 139t-74.5 362zM258 510h825q25 185 -66 295t-263 110t-311.5 -111t-184.5 -294z M625 1362h73l115 -260h-55z" />
<glyph unicode="&#xe9;" horiz-adv-x="1150" d="M193 481q41 223 201.5 359.5t367.5 136.5q203 0 309 -135.5t70 -360.5l-4 -26h-885q-24 -186 74 -300t270 -114q115 0 218 51t175 144l49 -33q-87 -105 -205 -164t-247 -59q-205 0 -318.5 139t-74.5 362zM258 510h825q25 185 -66 295t-263 110t-311.5 -111t-184.5 -294z M733 1102l209 260h74l-228 -260h-55z" />
<glyph unicode="&#xea;" horiz-adv-x="1150" d="M193 481q41 223 201.5 359.5t367.5 136.5q203 0 309 -135.5t70 -360.5l-4 -26h-885q-24 -186 74 -300t270 -114q115 0 218 51t175 144l49 -33q-87 -105 -205 -164t-247 -59q-205 0 -318.5 139t-74.5 362zM258 510h825q25 185 -66 295t-263 110t-311.5 -111t-184.5 -294z M502 1102l272 260h98l179 -260h-62l-174 223l-252 -223h-61z" />
<glyph unicode="&#xeb;" horiz-adv-x="1150" d="M193 481q41 223 201.5 359.5t367.5 136.5q203 0 309 -135.5t70 -360.5l-4 -26h-885q-24 -186 74 -300t270 -114q115 0 218 51t175 144l49 -33q-87 -105 -205 -164t-247 -59q-205 0 -318.5 139t-74.5 362zM258 510h825q25 185 -66 295t-263 110t-311.5 -111t-184.5 -294z M586 1272q4 26 25 42.5t48 16.5q29 0 44.5 -16.5t11.5 -42.5q-5 -25 -26 -41.5t-50 -16.5q-26 0 -41.5 16.5t-11.5 41.5zM899 1272q4 26 25.5 42.5t48.5 16.5q29 0 44.5 -16.5t10.5 -42.5q-5 -25 -26 -41.5t-50 -16.5q-26 0 -41.5 16.5t-11.5 41.5z" />
<glyph unicode="&#xec;" horiz-adv-x="419" d="M178 0l168 956h64l-168 -956h-64zM246 1362h73l117 -260h-55z" />
<glyph unicode="&#xed;" horiz-adv-x="419" d="M178 0l168 956h64l-168 -956h-64zM373 1102l207 260h73l-225 -260h-55z" />
<glyph unicode="&#xee;" horiz-adv-x="419" d="M121 1102l272 260h99l178 -260h-62l-174 223l-252 -223h-61zM178 0l168 956h64l-168 -956h-64z" />
<glyph unicode="&#xef;" horiz-adv-x="419" d="M178 0l168 956h64l-168 -956h-64zM203 1272q4 26 26.5 42.5t49.5 16.5q29 0 43.5 -16t9.5 -43q-5 -25 -25 -41.5t-49 -16.5q-27 0 -43 17t-12 41zM516 1272q4 26 26.5 42.5t49.5 16.5q29 0 43.5 -16t9.5 -43q-5 -25 -25 -41.5t-49 -16.5q-27 0 -43 17t-12 41z" />
<glyph unicode="&#xf0;" horiz-adv-x="1222" d="M190 481q20 111 76.5 205t134 157t171.5 98.5t190 35.5q133 0 217 -43l-221 350l-213 -123l-25 45l209 125l-113 189h76l96 -158l173 94l20 -41l-170 -96l344 -537q72 -127 39 -301q-27 -148 -116 -264.5t-213.5 -178t-260.5 -61.5t-239.5 61.5t-152.5 178t-22 264.5z M254 481q-18 -96 2.5 -179.5t70.5 -140t124.5 -88.5t162.5 -32q184 0 332 123t184 317q24 131 -18 231t-131 151.5t-209 51.5q-186 0 -334 -118.5t-184 -315.5z" />
<glyph unicode="&#xf1;" horiz-adv-x="1148" d="M178 0l168 956h62l-37 -211q39 81 107.5 135t140 75.5t147.5 21.5q169 0 259 -112.5t58 -301.5l-98 -563h-61l98 563q29 162 -46.5 257t-219.5 95q-70 0 -134 -20t-122.5 -62t-102 -115t-63.5 -171l-94 -547h-62zM545 1155q11 51 41.5 85.5t61.5 47t59 12.5q26 0 48 -8.5 t33 -17t29 -25.5q42 -39 78 -39q28 0 54 22t36 68h62q-11 -51 -41.5 -85.5t-61.5 -47t-59 -12.5q-26 0 -47.5 8t-30 14t-31.5 25q-2 2 -8 7.5t-8 7.5t-7.5 6.5t-8 6t-7.5 5t-9 4.5t-9 3t-10 2.5t-11 0.5q-28 0 -55 -22t-37 -68h-61z" />
<glyph unicode="&#xf2;" horiz-adv-x="1216" d="M190 481q27 148 115 262t212 174t261 60q101 0 186 -35.5t142 -98.5t80.5 -157t3.5 -205q-39 -222 -208 -361.5t-380 -139.5q-102 0 -187 36t-141.5 100.5t-79.5 159t-4 205.5zM252 481q-36 -197 69.5 -318.5t290.5 -121.5t332.5 121t183.5 319q18 97 -1.5 179.5 t-69 137.5t-123.5 86t-164 31q-186 0 -334 -119.5t-184 -314.5zM653 1362h74l115 -260h-56z" />
<glyph unicode="&#xf3;" horiz-adv-x="1216" d="M190 481q27 148 115 262t212 174t261 60q101 0 186 -35.5t142 -98.5t80.5 -157t3.5 -205q-39 -222 -208 -361.5t-380 -139.5q-102 0 -187 36t-141.5 100.5t-79.5 159t-4 205.5zM252 481q-36 -197 69.5 -318.5t290.5 -121.5t332.5 121t183.5 319q18 97 -1.5 179.5 t-69 137.5t-123.5 86t-164 31q-186 0 -334 -119.5t-184 -314.5zM754 1102l209 260h73l-227 -260h-55z" />
<glyph unicode="&#xf4;" horiz-adv-x="1216" d="M190 481q27 148 115 262t212 174t261 60q101 0 186 -35.5t142 -98.5t80.5 -157t3.5 -205q-39 -222 -208 -361.5t-380 -139.5q-102 0 -187 36t-141.5 100.5t-79.5 159t-4 205.5zM252 481q-36 -197 69.5 -318.5t290.5 -121.5t332.5 121t183.5 319q18 97 -1.5 179.5 t-69 137.5t-123.5 86t-164 31q-186 0 -334 -119.5t-184 -314.5zM526 1102l273 260h98l178 -260h-61l-174 223l-252 -223h-62z" />
<glyph unicode="&#xf5;" horiz-adv-x="1216" d="M190 481q27 148 115 262t212 174t261 60q101 0 186 -35.5t142 -98.5t80.5 -157t3.5 -205q-39 -222 -208 -361.5t-380 -139.5q-102 0 -187 36t-141.5 100.5t-79.5 159t-4 205.5zM252 481q-36 -197 69.5 -318.5t290.5 -121.5t332.5 121t183.5 319q18 97 -1.5 179.5 t-69 137.5t-123.5 86t-164 31q-186 0 -334 -119.5t-184 -314.5zM571 1155q15 73 64.5 109t95.5 36q58 0 113 -51q39 -39 76 -39q28 0 54 22t36 68h61q-15 -73 -64.5 -109t-95.5 -36q-26 0 -47.5 8t-31 14.5t-31.5 24.5q-3 3 -10 9.5t-10 9l-9 7.5t-10.5 7.5t-10.5 5 t-12.5 3.5t-13.5 1q-28 0 -55 -22t-37 -68h-62z" />
<glyph unicode="&#xf6;" horiz-adv-x="1216" d="M190 481q27 148 115 262t212 174t261 60q101 0 186 -35.5t142 -98.5t80.5 -157t3.5 -205q-39 -222 -208 -361.5t-380 -139.5q-102 0 -187 36t-141.5 100.5t-79.5 159t-4 205.5zM252 481q-36 -197 69.5 -318.5t290.5 -121.5t332.5 121t183.5 319q18 97 -1.5 179.5 t-69 137.5t-123.5 86t-164 31q-186 0 -334 -119.5t-184 -314.5zM610 1272q4 26 25.5 42.5t48.5 16.5q29 0 44.5 -16.5t10.5 -42.5q-5 -25 -25.5 -41.5t-49.5 -16.5q-27 0 -42.5 17t-11.5 41zM924 1272q4 26 25 42.5t48 16.5q29 0 44.5 -16.5t11.5 -42.5q-5 -25 -26 -41.5 t-50 -16.5q-26 0 -41.5 16.5t-11.5 41.5z" />
<glyph unicode="&#xf7;" horiz-adv-x="1173" d="M240 428l8 61h842l-9 -61h-841zM537 96q4 26 25 43t48 17q29 0 45 -17t11 -43q-5 -25 -26 -41t-50 -16q-27 0 -42 16.5t-11 40.5zM664 811q4 26 25 42.5t48 16.5q29 0 44.5 -16.5t11.5 -42.5q-5 -25 -26 -41t-50 -16q-27 0 -42 16.5t-11 40.5z" />
<glyph unicode="&#xf8;" horiz-adv-x="1216" d="M113 23l139 118q-95 141 -59 340q27 148 115 262t211.5 174t260.5 60q189 0 314 -119l141 123l35 -41l-142 -123q99 -132 62 -336q-39 -222 -208 -361.5t-380 -139.5q-196 0 -313 120l-142 -120zM252 481q-33 -177 55 -295l733 629q-105 100 -270 100q-186 0 -334 -119.5 t-184 -314.5zM338 143q108 -102 276 -102q186 0 332 121t182 319q32 170 -51 291z" />
<glyph unicode="&#xf9;" horiz-adv-x="1148" d="M231 393l101 563h61l-100 -563q-29 -161 47.5 -256.5t220.5 -95.5q71 0 134.5 20.5t120.5 63t100 115.5t65 170l96 546h62l-168 -956h-62l35 211q-30 -61 -76 -107.5t-99.5 -72.5t-108.5 -38.5t-111 -12.5q-169 0 -259.5 112.5t-58.5 300.5zM637 1362h74l114 -260h-55z " />
<glyph unicode="&#xfa;" horiz-adv-x="1148" d="M231 393l101 563h61l-100 -563q-29 -161 47.5 -256.5t220.5 -95.5q71 0 134.5 20.5t120.5 63t100 115.5t65 170l96 546h62l-168 -956h-62l35 211q-30 -61 -76 -107.5t-99.5 -72.5t-108.5 -38.5t-111 -12.5q-169 0 -259.5 112.5t-58.5 300.5zM690 1102l209 260h74 l-228 -260h-55z" />
<glyph unicode="&#xfb;" horiz-adv-x="1148" d="M231 393l101 563h61l-100 -563q-29 -161 47.5 -256.5t220.5 -95.5q71 0 134.5 20.5t120.5 63t100 115.5t65 170l96 546h62l-168 -956h-62l35 211q-30 -61 -76 -107.5t-99.5 -72.5t-108.5 -38.5t-111 -12.5q-169 0 -259.5 112.5t-58.5 300.5zM487 1102l273 260h98 l178 -260h-61l-174 223l-252 -223h-62z" />
<glyph unicode="&#xfc;" horiz-adv-x="1148" d="M231 393l101 563h61l-100 -563q-29 -161 47.5 -256.5t220.5 -95.5q71 0 134.5 20.5t120.5 63t100 115.5t65 170l96 546h62l-168 -956h-62l35 211q-30 -61 -76 -107.5t-99.5 -72.5t-108.5 -38.5t-111 -12.5q-169 0 -259.5 112.5t-58.5 300.5zM571 1272q4 26 26.5 42.5 t49.5 16.5q29 0 43.5 -16t9.5 -43q-5 -25 -24.5 -41.5t-48.5 -16.5q-27 0 -43.5 17t-12.5 41zM885 1272q4 26 26.5 42.5t49.5 16.5q29 0 43.5 -16t9.5 -43q-5 -25 -25 -41.5t-49 -16.5q-27 0 -43 17t-12 41z" />
<glyph unicode="&#xfd;" horiz-adv-x="1019" d="M197 -463l272 453l-238 966h68l219 -893l541 893h67l-577 -956l-285 -463h-67zM625 1102l206 260h74l-225 -260h-55z" />
<glyph unicode="&#xfe;" d="M92 -463l354 1983h62l-143 -801q88 119 216.5 188.5t268.5 69.5q135 0 237 -67t148 -181.5t22 -249.5q-37 -208 -208.5 -353.5t-376.5 -145.5q-141 0 -245.5 70t-147.5 188l-125 -701h-62zM319 461q-20 -178 84.5 -299t280.5 -121q180 0 330 129t182 309 q21 117 -19 217.5t-129.5 159.5t-207.5 59q-120 0 -233.5 -58t-191 -159t-93.5 -219z" />
<glyph unicode="&#xff;" horiz-adv-x="1150" d="M186 473l4 27h885q24 186 -74 299.5t-270 113.5q-115 0 -218 -51t-175 -143l-49 33q87 105 205 164t247 59q205 0 319.5 -139.5t74.5 -362.5q-27 -148 -111.5 -262t-204 -174t-254.5 -60q-204 0 -309.5 135.5t-69.5 360.5zM244 444q-25 -185 66 -295t263 -110t311.5 111 t184.5 294h-825z" />
<glyph unicode="&#x152;" horiz-adv-x="2383" d="M242 702q36 197 158 363.5t301.5 264t375.5 97.5q218 0 371.5 -118.5t204.5 -313.5l73 416h766l-10 -61h-704l-113 -627h616l-10 -61h-616l-107 -601h729l-8 -61h-790l69 410q-115 -194 -312 -312t-415 -118q-146 0 -267.5 57t-198.5 153.5t-108.5 230t-4.5 281.5z M303 702q-32 -180 26.5 -332t191.5 -240.5t310 -88.5q180 0 345.5 88.5t277.5 240.5t145 332q32 181 -27 333.5t-193 241.5t-312 89q-179 0 -343.5 -89t-276 -241.5t-144.5 -333.5z" />
<glyph unicode="&#x153;" horiz-adv-x="2086" d="M190 481q27 148 115 262t212 174t261 60q161 0 272 -83t140 -230q78 147 213.5 230t294.5 83q203 0 309 -135.5t70 -360.5l-4 -26h-885q-24 -186 74 -300t270 -114q115 0 217 51t174 144l51 -33q-87 -105 -205 -164t-247 -59q-159 0 -265.5 84t-132.5 231 q-77 -146 -219.5 -230.5t-302.5 -84.5q-102 0 -187 36t-141.5 100.5t-79.5 159t-4 205.5zM252 481q-36 -197 69.5 -318.5t290.5 -121.5q118 0 227 50.5t187.5 148t97.5 221.5l2 20l4 19q24 123 -19.5 219t-133.5 146t-207 50q-186 0 -334 -119.5t-184 -314.5zM1194 510h825 q25 185 -66 295t-263 110t-311.5 -111t-184.5 -294z" />
<glyph unicode="&#x178;" horiz-adv-x="1214" d="M297 1411h74l364 -676l606 676h74l-659 -735l-119 -676h-62l119 678zM692 1726q4 26 25.5 43t48.5 17q29 0 44.5 -17t10.5 -43q-5 -25 -26 -41t-50 -16q-27 0 -42 16.5t-11 40.5zM1006 1726q4 26 25 43t48 17q29 0 45 -17t11 -43q-5 -25 -26 -41t-50 -16q-27 0 -42 16.5 t-11 40.5z" />
<glyph unicode="&#x2c6;" horiz-adv-x="978" d="M410 1102l272 260h98l178 -260h-61l-174 223l-252 -223h-61z" />
<glyph unicode="&#x2dc;" horiz-adv-x="968" d="M449 1155q11 51 41.5 85.5t61 47t58.5 12.5q26 0 48 -8.5t33.5 -17.5t29.5 -25q39 -39 78 -39q28 0 54 22t36 68h61q-11 -51 -41.5 -85.5t-61.5 -47t-59 -12.5q-26 0 -47.5 8.5t-29 13.5t-31.5 25q-4 4 -12.5 11t-12.5 10.5t-11 8.5t-12.5 7t-13.5 4t-16 2q-28 0 -55 -22 t-37 -68h-61z" />
<glyph unicode="&#x2000;" horiz-adv-x="967" />
<glyph unicode="&#x2001;" horiz-adv-x="1935" />
<glyph unicode="&#x2002;" horiz-adv-x="967" />
<glyph unicode="&#x2003;" horiz-adv-x="1935" />
<glyph unicode="&#x2004;" horiz-adv-x="645" />
<glyph unicode="&#x2005;" horiz-adv-x="483" />
<glyph unicode="&#x2006;" horiz-adv-x="322" />
<glyph unicode="&#x2007;" horiz-adv-x="322" />
<glyph unicode="&#x2008;" horiz-adv-x="241" />
<glyph unicode="&#x2009;" horiz-adv-x="387" />
<glyph unicode="&#x200a;" horiz-adv-x="107" />
<glyph unicode="&#x2010;" horiz-adv-x="972" d="M231 430l11 62h657l-10 -62h-658z" />
<glyph unicode="&#x2011;" horiz-adv-x="972" d="M231 430l11 62h657l-10 -62h-658z" />
<glyph unicode="&#x2012;" horiz-adv-x="972" d="M231 430l11 62h657l-10 -62h-658z" />
<glyph unicode="&#x2013;" horiz-adv-x="1210" d="M229 422l11 61h895l-11 -61h-895z" />
<glyph unicode="&#x2014;" horiz-adv-x="1622" d="M229 422l11 61h1306l-10 -61h-1307z" />
<glyph unicode="&#x2018;" horiz-adv-x="438" d="M330 1020q19 129 71 225t134 185l43 -19q-152 -165 -187 -391h-61z" />
<glyph unicode="&#x2019;" horiz-adv-x="440" d="M305 1020q153 175 187 391h61q-21 -128 -73 -224t-132 -186z" />
<glyph unicode="&#x201a;" horiz-adv-x="428" d="M43 -158q148 169 188 391h62q-23 -128 -75 -223t-132 -186z" />
<glyph unicode="&#x201c;" horiz-adv-x="630" d="M330 1020q19 129 71 225t134 185l43 -19q-152 -165 -187 -391h-61zM522 1020q19 129 71 225t134 185l43 -19q-150 -164 -186 -391h-62z" />
<glyph unicode="&#x201d;" horiz-adv-x="632" d="M305 1020q153 175 187 391h61q-21 -128 -73 -224t-132 -186zM498 1020q152 174 186 391h61q-21 -128 -72.5 -224t-131.5 -186z" />
<glyph unicode="&#x201e;" horiz-adv-x="620" d="M43 -158q148 169 188 391h62q-23 -128 -75 -223t-132 -186zM236 -158q148 169 188 391h61q-23 -128 -74.5 -223.5t-131.5 -185.5z" />
<glyph unicode="&#x2022;" horiz-adv-x="862" d="M274 477q17 96 98 160.5t181 64.5q98 0 157 -65t42 -160q-17 -96 -98 -160.5t-181 -64.5q-98 0 -157 65t-42 160z" />
<glyph unicode="&#x2026;" horiz-adv-x="1236" d="M162 37q4 26 25.5 42.5t48.5 16.5q29 0 44.5 -16.5t10.5 -42.5q-5 -25 -26 -41t-50 -16q-27 0 -42 16.5t-11 40.5zM557 37q4 26 25.5 42.5t48.5 16.5q29 0 44.5 -16.5t10.5 -42.5q-5 -25 -26 -41t-50 -16q-27 0 -42 16.5t-11 40.5zM952 37q4 26 25.5 42.5t48.5 16.5 q29 0 44.5 -16.5t10.5 -42.5q-5 -25 -25.5 -41t-49.5 -16q-27 0 -42.5 16.5t-11.5 40.5z" />
<glyph unicode="&#x202f;" horiz-adv-x="387" />
<glyph unicode="&#x2039;" horiz-adv-x="589" d="M195 475l358 424h74l-359 -424l211 -424h-76z" />
<glyph unicode="&#x203a;" horiz-adv-x="589" d="M127 51l358 424l-204 424h73l205 -424l-356 -424h-76z" />
<glyph unicode="&#x205f;" horiz-adv-x="483" />
<glyph unicode="&#x20ac;" horiz-adv-x="1611" d="M215 580l10 57h914l-11 -57h-649q0 -152 66 -275t186.5 -193.5t274.5 -70.5q234 0 442 158l33 -45q-222 -174 -488 -174q-171 0 -304.5 78.5t-204.5 215.5t-66 306h-203zM248 774l10 57h203q92 258 312 427t478 169q131 0 240 -46t186 -130l-47 -45q-157 160 -391 160 q-230 0 -432 -153t-285 -382h649l-10 -57h-913z" />
<glyph unicode="&#x2122;" horiz-adv-x="1775" d="M369 1350l8 61h663l228 -657l456 657h37l-41 -805h-59l39 682l-422 -612h-45l-207 612l-209 -682h-61l231 744h-299l-135 -744h-61l135 744h-258z" />
<glyph unicode="&#x25fc;" horiz-adv-x="952" d="M0 0v952h952v-952h-952z" />
</font>
</defs>
</svg>
